ply
format ascii 1.0
element vertex 576
property float x
property float y
property float z
property uchar green
property uchar blue
property uchar red
element face 0
property list uint8 int32 vertex_index
end_header
-24.00000 -120.00000 -56.00000 177 147 196
-24.00000 -112.00000 -56.00000 156 132 172
-24.00000 -104.00000 -56.00000 160 134 179
-16.00000 -120.00000 -56.00000 167 143 185
-8.00000 -120.00000 -56.00000 167 129 184
-16.00000 -112.00000 -56.00000 151 126 165
-16.00000 -104.00000 -64.00000 147 124 167
-16.00000 -104.00000 -56.00000 158 134 176
-8.00000 -112.00000 -56.00000 154 127 168
-8.00000 -104.00000 -64.00000 155 127 173
-8.00000 -104.00000 -56.00000 176 144 191
-24.00000 -128.00000 -48.00000 216 170 232
-24.00000 -128.00000 -40.00000 195 155 212
-24.00000 -120.00000 -48.00000 187 149 204
-24.00000 -120.00000 -40.00000 165 133 182
-32.00000 -112.00000 -40.00000 181 143 199
-24.00000 -112.00000 -48.00000 168 134 185
-24.00000 -112.00000 -40.00000 155 128 170
-24.00000 -104.00000 -48.00000 173 142 190
-24.00000 -104.00000 -40.00000 163 134 178
-16.00000 -128.00000 -48.00000 201 160 215
-16.00000 -128.00000 -40.00000 177 139 195
-16.00000 -120.00000 -48.00000 167 138 181
-16.00000 -120.00000 -40.00000 164 133 181
-8.00000 -128.00000 -48.00000 147 117 166
-8.00000 -128.00000 -40.00000 129 99 152
-8.00000 -120.00000 -48.00000 158 131 172
-8.00000 -120.00000 -40.00000 130 104 148
-16.00000 -112.00000 -48.00000 108 90 123
-16.00000 -112.00000 -40.00000 163 140 177
-16.00000 -104.00000 -48.00000 182 148 199
-16.00000 -104.00000 -40.00000 152 125 167
-8.00000 -112.00000 -48.00000 142 121 154
-8.00000 -112.00000 -40.00000 156 127 171
-8.00000 -104.00000 -40.00000 166 134 181
-8.00000 -88.00000 -72.00000 154 123 169
-16.00000 -96.00000 -64.00000 174 143 189
-16.00000 -96.00000 -56.00000 159 132 182
-16.00000 -88.00000 -64.00000 181 148 194
-16.00000 -88.00000 -56.00000 179 144 201
-8.00000 -96.00000 -64.00000 171 142 186
-8.00000 -88.00000 -64.00000 186 151 199
-8.00000 -80.00000 -72.00000 164 132 179
-8.00000 -72.00000 -72.00000 171 139 186
-16.00000 -80.00000 -64.00000 204 165 218
-16.00000 -80.00000 -56.00000 178 149 201
-16.00000 -72.00000 -64.00000 171 180 176
-16.00000 -72.00000 -56.00000 152 128 168
-8.00000 -80.00000 -64.00000 186 152 203
-8.00000 -72.00000 -64.00000 165 136 180
-24.00000 -96.00000 -48.00000 157 127 176
-24.00000 -96.00000 -40.00000 141 110 160
-24.00000 -72.00000 -48.00000 166 135 185
-24.00000 -72.00000 -40.00000 143 112 162
-16.00000 -96.00000 -48.00000 166 135 183
-16.00000 -96.00000 -40.00000 158 130 176
-16.00000 -88.00000 -48.00000 160 130 181
-16.00000 -88.00000 -40.00000 166 133 187
-8.00000 -96.00000 -40.00000 159 128 176
-8.00000 -88.00000 -40.00000 152 125 167
-16.00000 -80.00000 -48.00000 159 128 178
-16.00000 -80.00000 -40.00000 149 115 176
-16.00000 -72.00000 -48.00000 153 127 172
-16.00000 -72.00000 -40.00000 143 117 161
-8.00000 -80.00000 -40.00000 154 122 169
-8.00000 -72.00000 -40.00000 149 119 160
0.00000 -112.00000 -56.00000 144 131 157
0.00000 -104.00000 -64.00000 153 125 172
0.00000 -104.00000 -56.00000 160 132 178
0.00000 -120.00000 -48.00000 130 115 136
0.00000 -120.00000 -40.00000 142 118 160
0.00000 -112.00000 -48.00000 145 124 159
0.00000 -112.00000 -40.00000 164 133 179
0.00000 -104.00000 -48.00000 147 124 161
0.00000 -104.00000 -40.00000 166 134 181
0.00000 -88.00000 -72.00000 170 140 189
8.00000 -88.00000 -72.00000 176 144 191
0.00000 -96.00000 -64.00000 173 142 188
0.00000 -96.00000 -56.00000 167 138 182
0.00000 -88.00000 -64.00000 170 139 185
8.00000 -96.00000 -64.00000 178 144 195
8.00000 -96.00000 -56.00000 171 139 186
8.00000 -88.00000 -64.00000 175 143 190
8.00000 -88.00000 -56.00000 180 145 191
0.00000 -80.00000 -72.00000 160 129 175
0.00000 -72.00000 -72.00000 145 118 160
8.00000 -80.00000 -72.00000 181 147 198
8.00000 -72.00000 -72.00000 140 116 158
16.00000 -88.00000 -72.00000 205 164 218
24.00000 -88.00000 -72.00000 198 163 211
16.00000 -96.00000 -64.00000 193 153 211
16.00000 -96.00000 -56.00000 167 134 178
16.00000 -88.00000 -64.00000 187 153 202
16.00000 -88.00000 -56.00000 168 136 183
24.00000 -96.00000 -64.00000 193 154 207
24.00000 -96.00000 -56.00000 177 140 191
24.00000 -88.00000 -64.00000 198 159 212
16.00000 -80.00000 -72.00000 176 142 193
16.00000 -72.00000 -72.00000 134 110 152
24.00000 -80.00000 -72.00000 164 133 179
24.00000 -72.00000 -80.00000 151 135 170
24.00000 -72.00000 -72.00000 145 123 161
0.00000 -96.00000 -48.00000 150 121 164
0.00000 -96.00000 -40.00000 182 146 199
0.00000 -88.00000 -40.00000 163 130 176
8.00000 -96.00000 -48.00000 160 133 175
8.00000 -96.00000 -40.00000 178 144 193
8.00000 -88.00000 -48.00000 180 144 197
8.00000 -88.00000 -40.00000 158 127 172
0.00000 -80.00000 -40.00000 145 118 159
0.00000 -72.00000 -48.00000 130 107 144
0.00000 -72.00000 -40.00000 135 109 153
8.00000 -80.00000 -48.00000 130 112 140
8.00000 -80.00000 -40.00000 146 119 161
8.00000 -72.00000 -48.00000 136 109 151
8.00000 -72.00000 -40.00000 137 106 154
16.00000 -96.00000 -48.00000 153 126 167
16.00000 -88.00000 -48.00000 168 136 183
16.00000 -88.00000 -40.00000 150 119 165
24.00000 -96.00000 -48.00000 163 134 177
24.00000 -88.00000 -48.00000 149 124 163
16.00000 -80.00000 -48.00000 134 111 148
16.00000 -80.00000 -40.00000 144 115 158
16.00000 -72.00000 -48.00000 131 105 149
24.00000 -80.00000 -48.00000 149 120 163
24.00000 -72.00000 -48.00000 132 106 150
-8.00000 -64.00000 -72.00000 156 129 171
-8.00000 -56.00000 -72.00000 137 115 153
-16.00000 -64.00000 -64.00000 149 128 161
-16.00000 -64.00000 -56.00000 170 139 185
-16.00000 -56.00000 -64.00000 149 126 161
-16.00000 -56.00000 -56.00000 155 131 171
-8.00000 -64.00000 -64.00000 147 126 161
-8.00000 -56.00000 -64.00000 139 121 155
-8.00000 -48.00000 -72.00000 140 115 154
-8.00000 -40.00000 -72.00000 133 115 149
-16.00000 -48.00000 -64.00000 129 116 142
-16.00000 -48.00000 -56.00000 168 139 182
-16.00000 -40.00000 -56.00000 147 129 162
-8.00000 -48.00000 -64.00000 128 110 143
-8.00000 -48.00000 -56.00000 143 120 157
-8.00000 -40.00000 -64.00000 128 110 143
-8.00000 -40.00000 -56.00000 147 127 163
-24.00000 -64.00000 -48.00000 133 101 160
-24.00000 -64.00000 -40.00000 147 114 168
-16.00000 -64.00000 -48.00000 160 129 177
-16.00000 -64.00000 -40.00000 144 121 158
-16.00000 -56.00000 -48.00000 168 137 183
-16.00000 -56.00000 -40.00000 139 112 154
-8.00000 -64.00000 -40.00000 158 129 172
-8.00000 -56.00000 -48.00000 125 110 138
-8.00000 -56.00000 -40.00000 140 113 154
-16.00000 -48.00000 -48.00000 149 126 169
-16.00000 -48.00000 -40.00000 123 105 138
-16.00000 -40.00000 -48.00000 168 139 183
-16.00000 -40.00000 -40.00000 157 126 174
-8.00000 -48.00000 -48.00000 97 89 106
-8.00000 -48.00000 -40.00000 121 99 137
-8.00000 -40.00000 -48.00000 161 139 177
-8.00000 -40.00000 -40.00000 132 108 148
-8.00000 -32.00000 -64.00000 128 106 144
-8.00000 -32.00000 -56.00000 143 119 161
-8.00000 -32.00000 -48.00000 142 121 162
-8.00000 -32.00000 -40.00000 149 118 166
0.00000 -64.00000 -72.00000 137 115 153
0.00000 -56.00000 -72.00000 142 119 156
8.00000 -64.00000 -72.00000 142 118 158
8.00000 -56.00000 -72.00000 120 105 133
8.00000 -64.00000 -56.00000 130 105 144
8.00000 -56.00000 -56.00000 137 110 151
0.00000 -48.00000 -72.00000 135 117 150
0.00000 -40.00000 -72.00000 147 123 163
8.00000 -48.00000 -72.00000 117 100 132
8.00000 -40.00000 -72.00000 146 121 160
0.00000 -40.00000 -64.00000 136 112 152
8.00000 -48.00000 -56.00000 137 110 151
8.00000 -40.00000 -56.00000 131 103 142
16.00000 -64.00000 -72.00000 131 113 146
16.00000 -56.00000 -72.00000 129 108 143
24.00000 -64.00000 -80.00000 134 102 151
24.00000 -64.00000 -72.00000 144 120 160
24.00000 -56.00000 -80.00000 148 117 165
24.00000 -56.00000 -72.00000 146 121 160
16.00000 -64.00000 -56.00000 134 109 148
16.00000 -56.00000 -56.00000 137 108 152
24.00000 -64.00000 -56.00000 136 111 148
24.00000 -56.00000 -56.00000 131 106 145
16.00000 -48.00000 -72.00000 132 108 148
16.00000 -40.00000 -80.00000 172 145 186
16.00000 -40.00000 -72.00000 167 135 184
24.00000 -48.00000 -80.00000 150 123 165
24.00000 -48.00000 -72.00000 136 114 152
24.00000 -40.00000 -80.00000 152 118 167
24.00000 -40.00000 -72.00000 162 131 177
16.00000 -48.00000 -56.00000 130 103 144
16.00000 -40.00000 -56.00000 135 108 149
24.00000 -48.00000 -56.00000 130 105 144
24.00000 -40.00000 -56.00000 124 101 138
0.00000 -64.00000 -48.00000 133 106 148
0.00000 -64.00000 -40.00000 139 110 154
0.00000 -56.00000 -48.00000 127 104 141
0.00000 -56.00000 -40.00000 127 105 143
8.00000 -64.00000 -48.00000 133 110 147
8.00000 -56.00000 -48.00000 133 110 147
0.00000 -48.00000 -48.00000 123 101 139
0.00000 -48.00000 -40.00000 114 96 126
0.00000 -40.00000 -48.00000 123 102 135
0.00000 -40.00000 -40.00000 123 101 141
8.00000 -48.00000 -48.00000 134 103 149
8.00000 -40.00000 -48.00000 131 104 146
8.00000 -40.00000 -40.00000 127 103 143
16.00000 -64.00000 -48.00000 130 108 146
24.00000 -64.00000 -48.00000 128 104 144
16.00000 -40.00000 -48.00000 129 103 147
24.00000 -40.00000 -48.00000 125 101 141
0.00000 -32.00000 -72.00000 151 127 167
8.00000 -32.00000 -72.00000 149 123 167
8.00000 -24.00000 -72.00000 157 127 182
0.00000 -32.00000 -64.00000 145 119 163
0.00000 -32.00000 -56.00000 145 123 161
0.00000 -24.00000 -64.00000 151 123 170
0.00000 -24.00000 -56.00000 134 117 153
8.00000 -32.00000 -64.00000 155 128 178
8.00000 -24.00000 -64.00000 147 121 173
8.00000 -24.00000 -56.00000 147 124 170
8.00000 -16.00000 -72.00000 151 116 173
8.00000 -8.00000 -72.00000 129 104 151
8.00000 -16.00000 -64.00000 150 119 169
8.00000 -16.00000 -56.00000 132 112 150
8.00000 -8.00000 -64.00000 116 100 126
16.00000 -32.00000 -72.00000 152 122 173
16.00000 -24.00000 -72.00000 162 132 187
24.00000 -32.00000 -72.00000 159 128 178
24.00000 -24.00000 -72.00000 158 130 177
24.00000 -32.00000 -64.00000 173 140 194
24.00000 -24.00000 -64.00000 168 139 193
24.00000 -24.00000 -56.00000 178 145 207
16.00000 -16.00000 -72.00000 142 114 160
16.00000 -8.00000 -72.00000 160 127 181
24.00000 -16.00000 -72.00000 164 130 181
24.00000 -8.00000 -72.00000 152 120 177
16.00000 -16.00000 -64.00000 130 112 146
16.00000 -16.00000 -56.00000 129 111 144
16.00000 -8.00000 -64.00000 127 109 143
24.00000 -16.00000 -64.00000 139 115 157
24.00000 -16.00000 -56.00000 148 120 167
24.00000 -8.00000 -64.00000 133 109 151
0.00000 -32.00000 -48.00000 118 109 131
0.00000 -32.00000 -40.00000 143 116 158
0.00000 -24.00000 -48.00000 135 112 155
0.00000 -24.00000 -40.00000 143 113 162
8.00000 -32.00000 -48.00000 130 106 146
8.00000 -32.00000 -40.00000 128 106 146
8.00000 -24.00000 -48.00000 148 122 174
8.00000 -24.00000 -40.00000 135 110 157
8.00000 -16.00000 -48.00000 141 118 161
8.00000 -16.00000 -40.00000 144 115 159
8.00000 -8.00000 -48.00000 131 109 147
8.00000 -8.00000 -40.00000 142 116 160
8.00000 -16.00000 -32.00000 136 111 150
8.00000 -8.00000 -32.00000 144 116 162
16.00000 -32.00000 -48.00000 122 100 138
16.00000 -32.00000 -40.00000 110 93 129
16.00000 -24.00000 -48.00000 97 85 114
16.00000 -24.00000 -40.00000 129 105 145
24.00000 -32.00000 -48.00000 129 105 145
24.00000 -32.00000 -40.00000 109 95 126
24.00000 -24.00000 -48.00000 130 109 152
24.00000 -24.00000 -40.00000 133 111 151
16.00000 -24.00000 -32.00000 128 101 143
24.00000 -24.00000 -32.00000 139 110 153
16.00000 -16.00000 -48.00000 126 111 141
16.00000 -16.00000 -40.00000 131 110 145
16.00000 -8.00000 -48.00000 115 100 130
24.00000 -16.00000 -48.00000 149 125 167
24.00000 -16.00000 -40.00000 115 102 128
24.00000 -8.00000 -48.00000 168 136 191
24.00000 -8.00000 -40.00000 134 111 148
16.00000 -16.00000 -32.00000 136 113 150
16.00000 -16.00000 -24.00000 110 100 119
16.00000 -8.00000 -32.00000 145 120 159
16.00000 -8.00000 -24.00000 155 128 170
24.00000 -16.00000 -32.00000 147 118 162
24.00000 -16.00000 -24.00000 143 112 160
24.00000 -8.00000 -32.00000 160 125 181
24.00000 -8.00000 -24.00000 146 118 165
40.00000 -128.00000 -56.00000 170 138 185
40.00000 -120.00000 -64.00000 201 164 215
40.00000 -120.00000 -56.00000 167 133 182
40.00000 -104.00000 -72.00000 152 115 173
32.00000 -112.00000 -64.00000 183 152 202
32.00000 -112.00000 -56.00000 177 143 192
32.00000 -104.00000 -64.00000 200 161 214
32.00000 -104.00000 -56.00000 161 133 179
40.00000 -112.00000 -64.00000 194 154 211
40.00000 -112.00000 -56.00000 165 134 180
40.00000 -104.00000 -64.00000 186 150 203
48.00000 -128.00000 -56.00000 174 138 191
48.00000 -120.00000 -64.00000 196 160 213
48.00000 -120.00000 -56.00000 174 142 189
56.00000 -128.00000 -56.00000 201 159 219
56.00000 -120.00000 -64.00000 213 174 227
56.00000 -120.00000 -56.00000 187 154 200
48.00000 -112.00000 -64.00000 180 148 197
48.00000 -112.00000 -56.00000 136 115 150
48.00000 -104.00000 -64.00000 168 140 186
48.00000 -104.00000 -56.00000 138 120 153
56.00000 -112.00000 -64.00000 163 144 175
56.00000 -112.00000 -56.00000 152 125 167
56.00000 -104.00000 -64.00000 171 146 185
56.00000 -104.00000 -56.00000 154 129 168
32.00000 -120.00000 -48.00000 182 142 199
40.00000 -128.00000 -48.00000 150 110 170
40.00000 -120.00000 -48.00000 159 128 176
32.00000 -112.00000 -48.00000 152 125 167
32.00000 -104.00000 -48.00000 150 121 165
40.00000 -112.00000 -48.00000 146 123 160
40.00000 -104.00000 -48.00000 138 113 152
48.00000 -128.00000 -48.00000 173 140 192
48.00000 -120.00000 -48.00000 151 124 166
56.00000 -128.00000 -48.00000 166 134 183
56.00000 -120.00000 -48.00000 163 135 181
48.00000 -112.00000 -48.00000 141 122 161
48.00000 -104.00000 -48.00000 146 121 160
56.00000 -112.00000 -48.00000 149 120 164
56.00000 -104.00000 -48.00000 152 125 167
32.00000 -96.00000 -72.00000 204 171 217
32.00000 -88.00000 -72.00000 169 138 184
40.00000 -96.00000 -72.00000 149 121 167
40.00000 -88.00000 -72.00000 160 131 175
32.00000 -96.00000 -64.00000 204 169 215
32.00000 -96.00000 -56.00000 193 156 206
32.00000 -88.00000 -64.00000 200 161 214
40.00000 -96.00000 -64.00000 156 132 172
40.00000 -88.00000 -64.00000 168 139 183
32.00000 -80.00000 -72.00000 154 127 169
32.00000 -72.00000 -80.00000 171 145 180
32.00000 -72.00000 -72.00000 164 137 179
40.00000 -80.00000 -72.00000 176 147 191
40.00000 -72.00000 -72.00000 175 146 190
40.00000 -80.00000 -64.00000 194 161 207
40.00000 -72.00000 -64.00000 180 147 193
48.00000 -96.00000 -64.00000 170 141 185
48.00000 -96.00000 -56.00000 155 132 169
48.00000 -88.00000 -64.00000 177 145 192
48.00000 -88.00000 -56.00000 163 134 177
56.00000 -96.00000 -56.00000 153 126 168
48.00000 -80.00000 -64.00000 180 149 195
48.00000 -80.00000 -56.00000 159 130 174
48.00000 -72.00000 -64.00000 181 150 196
48.00000 -72.00000 -56.00000 166 137 181
56.00000 -72.00000 -56.00000 159 128 178
32.00000 -96.00000 -48.00000 150 120 161
32.00000 -88.00000 -48.00000 153 121 164
40.00000 -96.00000 -48.00000 142 115 156
40.00000 -88.00000 -48.00000 140 115 154
32.00000 -80.00000 -48.00000 152 121 166
32.00000 -72.00000 -48.00000 134 107 149
40.00000 -80.00000 -48.00000 140 113 154
40.00000 -72.00000 -48.00000 134 111 148
48.00000 -96.00000 -48.00000 153 126 167
48.00000 -88.00000 -48.00000 170 139 184
56.00000 -96.00000 -48.00000 153 124 168
48.00000 -80.00000 -48.00000 158 130 167
48.00000 -72.00000 -48.00000 131 110 141
56.00000 -72.00000 -48.00000 138 110 157
32.00000 -64.00000 -80.00000 155 124 170
32.00000 -64.00000 -72.00000 165 138 179
32.00000 -56.00000 -80.00000 141 112 156
32.00000 -56.00000 -72.00000 157 130 172
40.00000 -64.00000 -72.00000 174 145 188
40.00000 -56.00000 -72.00000 180 148 195
32.00000 -64.00000 -56.00000 125 103 141
32.00000 -56.00000 -56.00000 129 106 143
40.00000 -64.00000 -64.00000 180 148 195
40.00000 -56.00000 -64.00000 177 148 192
32.00000 -48.00000 -80.00000 146 117 161
32.00000 -48.00000 -72.00000 161 134 175
32.00000 -40.00000 -80.00000 159 126 172
32.00000 -40.00000 -72.00000 157 126 172
40.00000 -48.00000 -72.00000 167 136 182
40.00000 -40.00000 -72.00000 163 134 177
32.00000 -48.00000 -56.00000 123 99 139
32.00000 -40.00000 -64.00000 173 144 188
32.00000 -40.00000 -56.00000 122 100 138
40.00000 -48.00000 -64.00000 171 140 188
40.00000 -40.00000 -64.00000 174 142 191
40.00000 -40.00000 -56.00000 163 131 180
48.00000 -64.00000 -64.00000 160 132 171
48.00000 -64.00000 -56.00000 149 126 163
48.00000 -56.00000 -64.00000 153 130 173
48.00000 -56.00000 -56.00000 146 122 164
56.00000 -64.00000 -56.00000 144 118 162
48.00000 -48.00000 -64.00000 135 114 155
48.00000 -48.00000 -56.00000 146 118 165
48.00000 -40.00000 -64.00000 172 136 190
48.00000 -40.00000 -56.00000 167 134 186
32.00000 -64.00000 -48.00000 134 107 149
32.00000 -56.00000 -48.00000 126 102 142
40.00000 -64.00000 -48.00000 132 105 146
40.00000 -56.00000 -48.00000 123 101 139
32.00000 -48.00000 -48.00000 127 100 142
32.00000 -40.00000 -48.00000 130 103 145
40.00000 -48.00000 -48.00000 134 107 149
40.00000 -40.00000 -48.00000 145 118 160
48.00000 -64.00000 -48.00000 138 115 152
48.00000 -56.00000 -48.00000 146 117 161
56.00000 -64.00000 -48.00000 133 103 152
48.00000 -48.00000 -48.00000 148 119 163
48.00000 -40.00000 -48.00000 157 124 176
32.00000 -32.00000 -72.00000 165 134 179
32.00000 -32.00000 -64.00000 173 142 190
32.00000 -32.00000 -56.00000 187 151 204
32.00000 -24.00000 -64.00000 171 138 192
32.00000 -24.00000 -56.00000 171 139 194
40.00000 -32.00000 -64.00000 181 149 196
40.00000 -32.00000 -56.00000 174 145 189
40.00000 -24.00000 -56.00000 162 137 174
32.00000 -16.00000 -56.00000 151 117 178
32.00000 -32.00000 -48.00000 143 115 162
32.00000 -24.00000 -48.00000 159 124 181
32.00000 -24.00000 -40.00000 132 109 152
40.00000 -32.00000 -48.00000 157 126 172
40.00000 -24.00000 -48.00000 162 129 181
32.00000 -16.00000 -48.00000 163 130 184
32.00000 -16.00000 -40.00000 154 123 169
32.00000 -8.00000 -48.00000 191 148 215
32.00000 -8.00000 -40.00000 180 143 201
32.00000 -8.00000 -32.00000 124 95 147
8.00000 0.00000 -72.00000 156 133 178
8.00000 0.00000 -64.00000 138 112 157
8.00000 0.00000 -56.00000 125 105 141
8.00000 8.00000 -64.00000 163 128 184
8.00000 8.00000 -56.00000 150 118 175
16.00000 0.00000 -72.00000 171 134 193
24.00000 0.00000 -72.00000 147 116 178
16.00000 0.00000 -64.00000 156 126 177
16.00000 0.00000 -56.00000 132 112 148
16.00000 8.00000 -64.00000 177 133 203
16.00000 8.00000 -56.00000 171 131 198
24.00000 0.00000 -64.00000 132 111 154
24.00000 0.00000 -56.00000 139 112 161
24.00000 8.00000 -64.00000 138 99 170
24.00000 8.00000 -56.00000 146 115 175
8.00000 0.00000 -48.00000 125 102 145
8.00000 0.00000 -40.00000 151 124 173
8.00000 8.00000 -48.00000 151 121 176
8.00000 8.00000 -40.00000 169 134 191
0.00000 0.00000 -24.00000 138 114 154
0.00000 8.00000 -24.00000 160 130 183
8.00000 0.00000 -32.00000 147 119 165
8.00000 0.00000 -24.00000 141 114 156
8.00000 8.00000 -32.00000 162 129 183
8.00000 8.00000 -24.00000 157 127 178
8.00000 16.00000 -32.00000 176 144 201
8.00000 16.00000 -24.00000 163 132 184
8.00000 24.00000 -24.00000 187 147 207
16.00000 0.00000 -48.00000 127 105 145
16.00000 8.00000 -48.00000 163 125 190
16.00000 8.00000 -40.00000 174 137 196
24.00000 0.00000 -48.00000 165 130 186
24.00000 8.00000 -48.00000 160 130 179
24.00000 8.00000 -40.00000 172 139 193
16.00000 0.00000 -32.00000 137 114 151
16.00000 0.00000 -24.00000 131 110 145
16.00000 8.00000 -32.00000 178 145 199
24.00000 0.00000 -32.00000 153 118 175
24.00000 0.00000 -24.00000 142 114 160
24.00000 8.00000 -32.00000 189 150 211
24.00000 8.00000 -24.00000 134 106 152
16.00000 16.00000 -40.00000 178 132 204
24.00000 16.00000 -40.00000 209 166 233
16.00000 16.00000 -32.00000 198 162 215
16.00000 16.00000 -24.00000 180 145 202
16.00000 24.00000 -24.00000 186 150 204
24.00000 16.00000 -32.00000 203 165 221
24.00000 16.00000 -24.00000 201 173 219
24.00000 24.00000 -24.00000 175 144 196
16.00000 32.00000 -24.00000 177 146 196
24.00000 32.00000 -24.00000 172 139 193
24.00000 40.00000 -24.00000 182 142 209
24.00000 48.00000 -24.00000 181 148 200
0.00000 0.00000 -16.00000 166 133 185
0.00000 0.00000 -8.00000 139 119 157
0.00000 8.00000 -16.00000 165 132 184
0.00000 8.00000 -8.00000 146 122 162
8.00000 0.00000 -16.00000 160 128 175
8.00000 0.00000 -8.00000 154 123 173
8.00000 8.00000 -16.00000 186 152 203
8.00000 8.00000 -8.00000 138 116 154
0.00000 0.00000 0.00000 133 134 139
0.00000 16.00000 -16.00000 168 142 186
0.00000 16.00000 -8.00000 169 136 188
0.00000 24.00000 -16.00000 164 143 176
0.00000 24.00000 -8.00000 175 140 196
8.00000 16.00000 -16.00000 173 142 194
8.00000 16.00000 -8.00000 135 113 151
8.00000 24.00000 -16.00000 170 142 189
8.00000 24.00000 -8.00000 160 132 178
16.00000 0.00000 -16.00000 152 121 169
16.00000 0.00000 -8.00000 161 133 179
16.00000 8.00000 -16.00000 158 126 173
16.00000 8.00000 -8.00000 156 125 175
24.00000 0.00000 -16.00000 139 109 160
24.00000 8.00000 -16.00000 150 118 167
24.00000 8.00000 -8.00000 162 125 183
16.00000 16.00000 -8.00000 142 114 161
16.00000 24.00000 -16.00000 176 143 195
16.00000 24.00000 -8.00000 143 116 166
24.00000 16.00000 -16.00000 149 119 168
24.00000 16.00000 -8.00000 146 116 167
24.00000 24.00000 -16.00000 152 123 181
24.00000 24.00000 -8.00000 150 118 177
8.00000 32.00000 -16.00000 170 137 191
8.00000 32.00000 -8.00000 158 128 179
16.00000 32.00000 -16.00000 171 138 192
16.00000 32.00000 -8.00000 145 121 171
16.00000 40.00000 -16.00000 171 138 192
24.00000 32.00000 -16.00000 167 135 202
24.00000 32.00000 -8.00000 160 130 193
24.00000 40.00000 -16.00000 163 136 185
24.00000 48.00000 -16.00000 160 130 179
32.00000 0.00000 -48.00000 192 151 214
32.00000 0.00000 -40.00000 186 146 204
32.00000 8.00000 -48.00000 165 128 187
32.00000 8.00000 -40.00000 174 139 195
40.00000 0.00000 -40.00000 169 129 187
32.00000 0.00000 -32.00000 149 114 171
32.00000 0.00000 -24.00000 132 109 152
32.00000 8.00000 -32.00000 192 152 210
40.00000 0.00000 -32.00000 174 135 196
40.00000 0.00000 -24.00000 155 123 172
40.00000 8.00000 -32.00000 191 150 213
40.00000 8.00000 -24.00000 204 164 224
32.00000 16.00000 -32.00000 194 154 214
32.00000 16.00000 -24.00000 175 149 201
32.00000 24.00000 -24.00000 195 164 216
40.00000 16.00000 -32.00000 233 192 246
40.00000 16.00000 -24.00000 218 181 232
40.00000 24.00000 -24.00000 210 173 223
48.00000 0.00000 -32.00000 167 118 188
48.00000 0.00000 -24.00000 179 137 199
48.00000 8.00000 -32.00000 164 128 191
48.00000 8.00000 -24.00000 180 143 202
48.00000 16.00000 -24.00000 194 155 216
48.00000 24.00000 -24.00000 194 150 226
32.00000 32.00000 -24.00000 197 161 214
32.00000 40.00000 -24.00000 187 146 211
40.00000 32.00000 -24.00000 235 213 241
32.00000 48.00000 -24.00000 186 155 203
32.00000 0.00000 -16.00000 146 117 161
32.00000 8.00000 -16.00000 147 119 165
32.00000 8.00000 -8.00000 168 134 185
40.00000 0.00000 -16.00000 159 128 176
40.00000 8.00000 -16.00000 164 131 183
40.00000 8.00000 -8.00000 164 131 183
32.00000 16.00000 -16.00000 170 136 187
32.00000 16.00000 -8.00000 159 128 180
32.00000 24.00000 -16.00000 169 137 204
32.00000 24.00000 -8.00000 147 121 176
40.00000 16.00000 -16.00000 197 167 222
40.00000 16.00000 -8.00000 180 145 201
40.00000 24.00000 -16.00000 196 159 218
40.00000 24.00000 -8.00000 182 142 209
48.00000 0.00000 -16.00000 164 132 181
48.00000 8.00000 -16.00000 181 141 201
48.00000 16.00000 -16.00000 194 150 214
48.00000 16.00000 -8.00000 211 172 224
48.00000 24.00000 -16.00000 196 153 220
32.00000 32.00000 -16.00000 178 141 210
32.00000 32.00000 -8.00000 148 121 184
32.00000 40.00000 -16.00000 200 170 219
40.00000 32.00000 -16.00000 191 156 213
40.00000 32.00000 -8.00000 160 130 193
32.00000 48.00000 -16.00000 163 142 177
48.00000 32.00000 -16.00000 180 142 208
